<!-- Generator: Adobe Illustrator 24.1.3, SVG Export Plug-In  -->
<svg version="1.1" xmlns="http://www.w3.org/2000/svg" xmlns:xlink="http://www.w3.org/1999/xlink" x="0px" y="0px" width="15px"
	 height="8.2px" viewBox="0 0 15 8.2" style="overflow:visible;enable-background:new 0 0 15 8.2;" xml:space="preserve">
<style type="text/css">
	.st0{fill:#0044FF;}
</style>
<defs>
</defs>
<path id="Path_23_2_" class="st0" d="M15,1.3c0,0.4-0.2,0.8-0.5,1.1L8.3,7.9c-0.5,0.4-1.1,0.4-1.6,0l0,0L0.5,2.4
	c-0.6-0.5-0.7-1.3-0.2-1.9C0.5,0.2,0.9,0,1.3,0c0.3,0,0.6,0.1,0.8,0.3l0,0l5.3,4.8l5.4-4.8c0.6-0.4,1.4-0.3,1.9,0.3
	C14.9,0.8,15,1,15,1.3L15,1.3z"/>
</svg>
