<svg xmlns="http://www.w3.org/2000/svg" width="512" height="512" viewBox="0 0 512 512" version="1.1">
	<path d="M 107.177 180.969 C 71.904 190.497, 50.823 225.190, 58.447 261.163 C 62.537 280.462, 76.329 298.328, 93.926 307.121 C 121.623 320.961, 156.633 313.172, 176.099 288.839 L 179.027 285.178 167.482 276.987 L 155.937 268.797 150.528 274.427 C 129.022 296.809, 93.221 284.650, 87.815 253.127 C 84.906 236.161, 92.594 219.837, 107.232 211.899 C 113.280 208.620, 113.887 208.500, 124.500 208.500 C 137.793 208.500, 142.227 210.247, 150.534 218.755 L 155.899 224.250 166.949 216.491 C 173.027 212.223, 178 208.207, 178 207.565 C 178 205.237, 167.773 195.003, 160.839 190.393 C 150.011 183.194, 138.987 179.743, 125.500 179.328 C 116.874 179.063, 112.920 179.417, 107.177 180.969 M 195.576 184.750 C 194.850 189.285, 180 309.699, 180 311.049 C 180 311.609, 186.366 312, 195.500 312 C 204.217 312, 211 311.599, 211 311.084 C 211 310.337, 218.352 247.373, 219.241 240.503 C 219.385 239.397, 225.744 251.556, 233.500 267.763 L 247.500 297.019 259.291 296.760 L 271.082 296.500 284.791 267.830 C 296.409 243.532, 298.600 239.567, 299.155 241.830 C 299.516 243.299, 301.520 259.688, 303.609 278.250 L 307.407 312 322.703 312 C 334.257 312, 338.008 311.694, 338.032 310.750 C 338.050 310.063, 334.571 280.587, 330.302 245.250 L 322.540 181 309.520 181.012 L 296.500 181.023 278.015 221.426 C 267.849 243.647, 259.299 261.674, 259.015 261.485 C 258.732 261.296, 250.175 243.126, 240 221.108 L 221.500 181.074 208.838 181.037 L 196.176 181 195.576 184.750 M 350 246.500 L 350 312.145 382.750 311.790 C 415.026 311.440, 415.596 311.398, 422.120 308.889 C 435.162 303.873, 443.823 297.086, 450.285 286.817 C 458.416 273.897, 461.520 260.751, 460.734 242.566 C 459.903 223.317, 454.788 210.113, 443.549 198.199 C 436.888 191.139, 431.218 187.461, 421.293 183.764 C 415.886 181.750, 413.320 181.582, 382.750 181.231 L 350 180.855 350 246.500 M 380 246.500 L 380 286.188 394.250 285.844 C 407.801 285.517, 408.758 285.357, 413.754 282.589 C 419.661 279.316, 423.001 275.424, 426.544 267.684 C 434.053 251.283, 431.085 226.956, 420.198 215.665 C 413.381 208.596, 410.312 207.592, 394.250 207.179 L 380 206.812 380 246.500" stroke="none" fill="black" fill-rule="evenodd"/>
</svg>